<svg width="1080" height="1080" viewBox="0 0 1080 1080" fill="none" xmlns="http://www.w3.org/2000/svg">
<path d="M430.881 352.527H430.447L430.386 352.956L326.93 1079.45L0.558483 1045.56L129.142 0.536012L129.335 0.551131C129.778 0.585875 130.438 0.637425 131.305 0.704659C133.038 0.839126 135.601 1.03633 138.914 1.28729C145.542 1.78921 155.175 2.50616 167.2 3.36633C191.25 5.08667 224.867 7.3799 263.134 9.67148C339.666 14.2545 434.808 18.8315 509.223 18.8051C583.092 18.7788 677.535 14.2018 753.503 9.63196C791.489 7.34696 824.858 5.06361 848.731 3.35151C860.668 2.49545 870.23 1.7822 876.809 1.28296C880.098 1.03334 882.641 0.837216 884.362 0.703496C885.223 0.636635 885.878 0.585375 886.318 0.550827L886.533 0.533879L1079.41 1045.57L769.805 1079.46L579.655 352.9L579.557 352.527H579.171H430.881Z" fill="#989898" stroke="black"/>
<rect x="0.612906" y="0.373886" width="183.017" height="282.548" transform="matrix(0.975416 -0.22037 0.250397 0.968143 604.274 412.031)" fill="#5B7B65" stroke="black" stroke-dasharray="2 2"/>
<rect x="0.442831" y="0.544972" width="183.54" height="124.737" transform="matrix(0.995383 0.0959805 -0.109721 0.993963 25.0496 894.295)" fill="#5B7B65" stroke="black" stroke-dasharray="2 2"/>
<line y1="-0.5" x2="251.104" y2="-0.5" transform="matrix(-0.022285 0.999752 -0.999811 -0.0194677 514.819 20.92)" stroke="black"/>
<ellipse cx="528.808" cy="54.9153" rx="13.9896" ry="13.0751" fill="black"/>
<ellipse cx="528.808" cy="101.985" rx="13.9896" ry="13.0751" fill="black"/>
<ellipse cx="528.808" cy="149.056" rx="13.9896" ry="13.0751" fill="black"/>
<ellipse cx="528.808" cy="196.126" rx="13.9896" ry="13.0751" fill="black"/>
<ellipse cx="528.808" cy="243.196" rx="13.9896" ry="13.0751" fill="black"/>
<rect x="0.439245" y="0.547491" width="183.525" height="281.663" transform="matrix(0.994808 0.101769 -0.116317 0.993212 102.72 247.072)" fill="#A89C84" stroke="black" stroke-dasharray="2 2"/>
<rect x="0.597114" y="0.395735" width="183.203" height="192.078" transform="matrix(0.982574 -0.185875 0.211655 0.977345 816.922 818.862)" fill="#A89C84" stroke="black" stroke-dasharray="2 2"/>
<rect x="0.424549" y="0.557481" width="183.454" height="281.787" transform="matrix(0.992126 0.125242 -0.143028 0.989719 204.904 568.296)" fill="#D4FAFF" stroke="black" stroke-dasharray="2 2"/>
<rect x="0.560138" y="0.440671" width="183.5" height="127.991" transform="matrix(0.993861 -0.110636 0.126415 0.991978 672.342 58.305)" fill="#D4FAFF" stroke="black" stroke-dasharray="2 2"/>
</svg>
