<svg width="110" height="110" viewBox="0 0 110 110" fill="none" xmlns="http://www.w3.org/2000/svg">
<path d="M55 106C83.1665 106 106 83.1665 106 55C106 26.8335 83.1665 4 55 4C26.8335 4 4 26.8335 4 55C4 83.1665 26.8335 106 55 106Z" fill="black"/>
<path d="M55 8C80.92 8 102 29.08 102 55C102 80.92 80.92 102 55 102C29.08 102 8 80.92 8 55C8 29.08 29.08 8 55 8ZM55 0C24.62 0 0 24.62 0 55C0 85.38 24.62 110 55 110C85.38 110 110 85.38 110 55C110 24.62 85.38 0 55 0Z" fill="black"/>
<path d="M36.7518 23.0788C39.563 23.0788 41.6914 23.708 43.1372 24.9663C44.583 26.2247 45.3058 27.8578 45.3058 29.8658C45.3058 30.2139 45.2523 30.736 45.1452 31.4321C44.8239 33.2259 43.9939 34.8724 42.6553 36.3717C41.3434 37.8711 39.5496 38.8884 37.2738 39.4239L42.1332 50.99H36.6714L32.2538 39.8255H28.7198L26.7519 50.99H22.1737L27.1134 23.0788H36.7518ZM40.4465 31.4321C40.5268 31.0305 40.567 30.6423 40.567 30.2674C40.567 29.1162 40.1921 28.2327 39.4425 27.6169C38.7196 26.9743 37.6085 26.653 36.1092 26.653H31.049L29.3623 36.2111H34.4225C36.136 36.2111 37.5014 35.7827 38.5188 34.926C39.563 34.0692 40.2055 32.9046 40.4465 31.4321ZM56.4236 26.6129L54.9377 35.0866H64.5761L63.9737 38.6207H54.3353L52.769 47.4158H63.6122L62.9697 50.99H47.5482L52.4879 23.0386H67.9093L67.2668 26.6129H56.4236ZM78.729 51.2711C77.0155 51.2711 75.476 51.0034 74.1106 50.4679C72.7452 49.9057 71.6608 49.1025 70.8576 48.0583C70.0544 46.9874 69.6528 45.729 69.6528 44.2833C69.6528 44.0959 69.6796 43.7612 69.7332 43.2793H74.2712C74.1641 44.5108 74.5256 45.5416 75.3556 46.3716C76.1855 47.1748 77.3769 47.5764 78.9298 47.5764C80.5897 47.5764 81.8883 47.2417 82.8253 46.5724C83.7624 45.8763 84.2309 44.8857 84.2309 43.6005C84.2309 42.8241 83.99 42.1682 83.508 41.6327C83.0529 41.0705 82.4639 40.6019 81.741 40.2271C81.0449 39.8523 80.0677 39.4105 78.8093 38.9018C77.1494 38.2057 75.8241 37.5765 74.8335 37.0143C73.8429 36.4521 72.9861 35.6756 72.2632 34.685C71.5671 33.6944 71.2191 32.4495 71.2191 30.9501C71.2191 29.2902 71.6475 27.8444 72.5042 26.6129C73.3609 25.3545 74.539 24.3907 76.0383 23.7213C77.5644 23.052 79.2779 22.7173 81.1788 22.7173C83.0797 22.7173 84.7128 23.0386 86.0783 23.6812C87.4705 24.297 88.5147 25.1805 89.2108 26.3317C89.9336 27.4562 90.2549 28.7815 90.1746 30.3076H85.3554C85.4625 29.2099 85.1278 28.2996 84.3514 27.5767C83.575 26.8271 82.4505 26.4522 80.978 26.4522C79.4251 26.4522 78.1801 26.8137 77.2431 27.5365C76.3328 28.2327 75.8776 29.1831 75.8776 30.3879C75.8776 31.1376 76.1052 31.7935 76.5604 32.3557C77.0423 32.8912 77.6447 33.3597 78.3676 33.7613C79.0904 34.1362 80.0677 34.5913 81.2992 35.1268C82.9592 35.8764 84.2845 36.5458 85.2751 37.1348C86.2925 37.7238 87.1626 38.527 87.8855 39.5444C88.6084 40.535 88.9698 41.7666 88.9698 43.2391C88.9698 44.792 88.5414 46.1842 87.6847 47.4158C86.8279 48.6206 85.6231 49.571 84.0703 50.2671C82.5174 50.9364 80.737 51.2711 78.729 51.2711Z" fill="black"/>
<path d="M43.1372 24.9663L42.8089 25.3435L42.8089 25.3435L43.1372 24.9663ZM45.1452 31.4321L45.6375 31.5202L45.6394 31.5081L45.1452 31.4321ZM42.6553 36.3717L42.2823 36.0387L42.279 36.0425L42.6553 36.3717ZM37.2738 39.4239L37.1593 38.9372L36.5839 39.0726L36.8129 39.6176L37.2738 39.4239ZM42.1332 50.99V51.49H42.8856L42.5942 50.7963L42.1332 50.99ZM36.6714 50.99L36.2065 51.174L36.3316 51.49H36.6714V50.99ZM32.2538 39.8255L32.7188 39.6415L32.5937 39.3255H32.2538V39.8255ZM28.7198 39.8255V39.3255H28.3002L28.2274 39.7387L28.7198 39.8255ZM26.7519 50.99V51.49H27.1715L27.2443 51.0768L26.7519 50.99ZM22.1737 50.99L21.6813 50.9029L21.5774 51.49H22.1737V50.99ZM27.1134 23.0788V22.5788H26.6941L26.621 22.9917L27.1134 23.0788ZM40.4465 31.4321L39.9562 31.334L39.9545 31.3426L39.953 31.3513L40.4465 31.4321ZM39.4425 27.6169L39.1103 27.9906L39.1176 27.997L39.1251 28.0032L39.4425 27.6169ZM31.049 26.653V26.153H30.6296L30.5566 26.5661L31.049 26.653ZM29.3623 36.2111L28.8699 36.1242L28.7664 36.7111H29.3623V36.2111ZM38.5188 34.926L38.2016 34.5394L38.1967 34.5435L38.5188 34.926ZM36.7518 23.5788C39.4973 23.5788 41.4885 24.1942 42.8089 25.3435L43.4655 24.5892C41.8943 23.2217 39.6286 22.5788 36.7518 22.5788V23.5788ZM42.8089 25.3435C44.1398 26.5018 44.8058 27.9946 44.8058 29.8658H45.8058C45.8058 27.721 45.0261 25.9475 43.4655 24.5892L42.8089 25.3435ZM44.8058 29.8658C44.8058 30.1741 44.7573 30.6651 44.651 31.356L45.6394 31.5081C45.7473 30.8068 45.8058 30.2537 45.8058 29.8658H44.8058ZM44.653 31.3439C44.3497 33.0374 43.5659 34.6011 42.2823 36.0387L43.0283 36.7048C44.422 35.1438 45.2981 33.4143 45.6374 31.5202L44.653 31.3439ZM42.279 36.0425C41.0471 37.4503 39.3517 38.4214 37.1593 38.9372L37.3884 39.9106C39.7475 39.3555 41.6397 38.2918 43.0316 36.701L42.279 36.0425ZM36.8129 39.6176L41.6722 51.1837L42.5942 50.7963L37.7348 39.2302L36.8129 39.6176ZM42.1332 50.49H36.6714V51.49H42.1332V50.49ZM37.1364 50.806L32.7188 39.6415L31.7889 40.0095L36.2065 51.174L37.1364 50.806ZM32.2538 39.3255H28.7198V40.3255H32.2538V39.3255ZM28.2274 39.7387L26.2595 50.9032L27.2443 51.0768L29.2122 39.9123L28.2274 39.7387ZM26.7519 50.49H22.1737V51.49H26.7519V50.49ZM22.666 51.0771L27.6057 23.1659L26.621 22.9917L21.6813 50.9029L22.666 51.0771ZM27.1134 23.5788H36.7518V22.5788H27.1134V23.5788ZM40.9368 31.5301C41.023 31.0992 41.067 30.6781 41.067 30.2674H40.067C40.067 30.6065 40.0306 30.9618 39.9562 31.334L40.9368 31.5301ZM41.067 30.2674C41.067 28.9976 40.6471 27.9593 39.7598 27.2305L39.1251 28.0032C39.7371 28.506 40.067 29.2348 40.067 30.2674H41.067ZM39.7747 27.2432C38.9214 26.4847 37.6664 26.153 36.1092 26.153V27.153C37.5506 27.153 38.5178 27.4639 39.1103 27.9906L39.7747 27.2432ZM36.1092 26.153H31.049V27.153H36.1092V26.153ZM30.5566 26.5661L28.8699 36.1242L29.8547 36.298L31.5414 26.7399L30.5566 26.5661ZM29.3623 36.7111H34.4225V35.7111H29.3623V36.7111ZM34.4225 36.7111C36.2192 36.7111 37.71 36.2608 38.8409 35.3084L38.1967 34.5435C37.2929 35.3047 36.0528 35.7111 34.4225 35.7111V36.7111ZM38.836 35.3125C39.9842 34.3704 40.6815 33.0918 40.9399 31.5128L39.953 31.3513C39.7295 32.7174 39.1417 33.7681 38.2016 34.5395L38.836 35.3125ZM56.4236 26.6129V26.1129H56.0036L55.9311 26.5265L56.4236 26.6129ZM54.9377 35.0866L54.4452 35.0003L54.3423 35.5866H54.9377V35.0866ZM64.5761 35.0866L65.0689 35.1706L65.1685 34.5866H64.5761V35.0866ZM63.9737 38.6207V39.1207H64.3956L64.4665 38.7047L63.9737 38.6207ZM54.3353 38.6207V38.1207H53.9164L53.843 38.533L54.3353 38.6207ZM52.769 47.4158L52.2768 47.3281L52.1721 47.9158H52.769V47.4158ZM63.6122 47.4158L64.1043 47.5042L64.2101 46.9158H63.6122V47.4158ZM62.9697 50.99V51.49H63.3878L63.4618 51.0785L62.9697 50.99ZM47.5482 50.99L47.0558 50.903L46.9521 51.49H47.5482V50.99ZM52.4879 23.0386V22.5386H52.0685L51.9955 22.9516L52.4879 23.0386ZM67.9093 23.0386L68.4014 23.1271L68.5072 22.5386H67.9093V23.0386ZM67.2668 26.6129V27.1129H67.6849L67.7589 26.7013L67.2668 26.6129ZM55.9311 26.5265L54.4452 35.0003L55.4301 35.173L56.9161 26.6992L55.9311 26.5265ZM54.9377 35.5866H64.5761V34.5866H54.9377V35.5866ZM64.0832 35.0026L63.4808 38.5367L64.4665 38.7047L65.0689 35.1706L64.0832 35.0026ZM63.9737 38.1207H54.3353V39.1207H63.9737V38.1207ZM53.843 38.533L52.2768 47.3281L53.2613 47.5034L54.8275 38.7084L53.843 38.533ZM52.769 47.9158H63.6122V46.9158H52.769V47.9158ZM63.1201 47.3273L62.4775 50.9015L63.4618 51.0785L64.1043 47.5042L63.1201 47.3273ZM62.9697 50.49H47.5482V51.49H62.9697V50.49ZM48.0406 51.077L52.9803 23.1256L51.9955 22.9516L47.0558 50.903L48.0406 51.077ZM52.4879 23.5386H67.9093V22.5386H52.4879V23.5386ZM67.4172 22.9502L66.7747 26.5244L67.7589 26.7013L68.4014 23.1271L67.4172 22.9502ZM67.2668 26.1129H56.4236V27.1129H67.2668V26.1129ZM74.1106 50.4679L73.9202 50.9303L73.9281 50.9334L74.1106 50.4679ZM70.8576 48.0583L70.4576 48.3583L70.4613 48.3632L70.8576 48.0583ZM69.7332 43.2793V42.7793H69.2856L69.2362 43.2241L69.7332 43.2793ZM74.2712 43.2793L74.7694 43.3226L74.8166 42.7793H74.2712V43.2793ZM75.3556 46.3716L75.002 46.7252L75.0078 46.7309L75.3556 46.3716ZM82.8253 46.5724L83.116 46.9793L83.1235 46.9738L82.8253 46.5724ZM83.508 41.6327L83.1194 41.9473L83.1276 41.9575L83.1364 41.9672L83.508 41.6327ZM81.741 40.2271L81.5039 40.6674L81.5108 40.671L81.741 40.2271ZM78.8093 38.9018L78.6159 39.363L78.6219 39.3654L78.8093 38.9018ZM72.2632 34.685L71.8541 34.9725L71.8593 34.9798L72.2632 34.685ZM72.5042 26.6129L72.9147 26.8984L72.9175 26.8943L72.5042 26.6129ZM76.0383 23.7213L75.8374 23.2634L75.8345 23.2648L76.0383 23.7213ZM86.0783 23.6812L85.8653 24.1337L85.876 24.1385L86.0783 23.6812ZM89.2108 26.3317L88.7827 26.5906L88.7902 26.6021L89.2108 26.3317ZM90.1746 30.3076V30.8076H90.649L90.6739 30.3339L90.1746 30.3076ZM85.3554 30.3076L84.8578 30.259L84.8042 30.8076H85.3554V30.3076ZM84.3514 27.5767L84.004 27.9365L84.0107 27.9427L84.3514 27.5767ZM77.2431 27.5365L77.5468 27.9337L77.5485 27.9324L77.2431 27.5365ZM76.5604 32.3557L76.1717 32.6703L76.18 32.6805L76.1887 32.6902L76.5604 32.3557ZM78.3676 33.7613L78.1247 34.1984L78.131 34.2019L78.1374 34.2052L78.3676 33.7613ZM81.2992 35.1268L81.5051 34.6711L81.4986 34.6683L81.2992 35.1268ZM85.2751 37.1348L85.0195 37.5646L85.0246 37.5675L85.2751 37.1348ZM87.8855 39.5444L87.4779 39.834L87.4816 39.8391L87.8855 39.5444ZM87.6847 47.4158L88.0922 47.7055L88.0951 47.7013L87.6847 47.4158ZM84.0703 50.2671L84.2682 50.7263L84.2748 50.7234L84.0703 50.2671ZM78.729 50.7711C77.0676 50.7711 75.5915 50.5116 74.2931 50.0024L73.9281 50.9334C75.3606 51.4952 76.9634 51.7711 78.729 51.7711V50.7711ZM74.301 50.0056C73.0068 49.4727 71.9973 48.7198 71.2539 47.7535L70.4613 48.3632C71.3244 49.4851 72.4835 50.3387 73.9202 50.9302L74.301 50.0056ZM71.2576 47.7583C70.5246 46.781 70.1528 45.63 70.1528 44.2833H69.1528C69.1528 45.828 69.5842 47.1938 70.4576 48.3583L71.2576 47.7583ZM70.1528 44.2833C70.1528 44.127 70.1764 43.8179 70.2301 43.3345L69.2362 43.2241C69.1828 43.7045 69.1528 44.0647 69.1528 44.2833H70.1528ZM69.7332 43.7793H74.2712V42.7793H69.7332V43.7793ZM73.7731 43.236C73.654 44.6057 74.0614 45.7845 75.002 46.7251L75.7091 46.018C74.9898 45.2987 74.6743 44.416 74.7694 43.3226L73.7731 43.236ZM75.0078 46.7309C75.9595 47.6518 77.293 48.0764 78.9298 48.0764V47.0764C77.4609 47.0764 76.4116 46.6977 75.7033 46.0123L75.0078 46.7309ZM78.9298 48.0764C80.6498 48.0764 82.0641 47.7306 83.1159 46.9793L82.5347 46.1655C81.7124 46.7529 80.5297 47.0764 78.9298 47.0764V48.0764ZM83.1235 46.9738C84.2016 46.1728 84.7309 45.0254 84.7309 43.6005H83.7309C83.7309 44.7459 83.3231 45.5797 82.5272 46.171L83.1235 46.9738ZM84.7309 43.6005C84.7309 42.711 84.451 41.933 83.8797 41.2982L83.1364 41.9672C83.5289 42.4034 83.7309 42.9372 83.7309 43.6005H84.7309ZM83.8967 41.3181C83.393 40.696 82.7475 40.1858 81.9712 39.7832L81.5108 40.671C82.1802 41.0181 82.7128 41.445 83.1194 41.9473L83.8967 41.3181ZM81.978 39.7869C81.2584 39.3994 80.2619 38.9497 78.9967 38.4383L78.6219 39.3654C79.8735 39.8713 80.8314 40.3052 81.5039 40.6673L81.978 39.7869ZM79.0027 38.4407C77.3519 37.7485 76.0467 37.128 75.0803 36.5795L74.5867 37.4492C75.6015 38.0251 76.9469 38.663 78.616 39.3629L79.0027 38.4407ZM75.0803 36.5795C74.156 36.0549 73.3514 35.328 72.6671 34.3903L71.8593 34.9798C72.6208 36.0232 73.5297 36.8493 74.5867 37.4492L75.0803 36.5795ZM72.6723 34.3976C72.0482 33.5094 71.7191 32.3713 71.7191 30.9501H70.7191C70.7191 32.5276 71.0861 33.8795 71.8541 34.9725L72.6723 34.3976ZM71.7191 30.9501C71.7191 29.3809 72.1224 28.0373 72.9147 26.8984L72.0937 26.3273C71.1725 27.6516 70.7191 29.1995 70.7191 30.9501H71.7191ZM72.9175 26.8943C73.7179 25.7186 74.8206 24.8125 76.2421 24.1779L75.8345 23.2648C74.2573 23.9688 73.004 24.9904 72.0909 26.3315L72.9175 26.8943ZM76.2391 24.1792C77.6936 23.5413 79.3373 23.2173 81.1788 23.2173V22.2173C79.2184 22.2173 77.4352 22.5627 75.8374 23.2635L76.2391 24.1792ZM81.1788 23.2173C83.0246 23.2173 84.5815 23.5294 85.8654 24.1336L86.2912 23.2288C84.8442 22.5478 83.1347 22.2173 81.1788 22.2173V23.2173ZM85.876 24.1385C87.1873 24.7184 88.1467 25.5382 88.7829 26.5905L89.6386 26.073C88.8826 24.8228 87.7537 23.8755 86.2805 23.2239L85.876 24.1385ZM88.7902 26.6021C89.4485 27.6262 89.7509 28.8444 89.6753 30.2813L90.6739 30.3339C90.7589 28.7187 90.4188 27.2863 89.6313 26.0614L88.7902 26.6021ZM90.1746 29.8076H85.3554V30.8076H90.1746V29.8076ZM85.853 30.3561C85.9746 29.1105 85.5877 28.0446 84.6921 27.2108L84.0107 27.9427C84.6679 28.5545 84.9504 29.3092 84.8578 30.259L85.853 30.3561ZM84.6987 27.217C83.7994 26.3487 82.5319 25.9522 80.978 25.9522V26.9522C82.369 26.9522 83.3506 27.3054 84.0041 27.9364L84.6987 27.217ZM80.978 25.9522C79.3492 25.9522 77.9861 26.3318 76.9377 27.1407L77.5485 27.9324C78.3741 27.2955 79.5011 26.9522 80.978 26.9522V25.9522ZM76.9394 27.1394C75.8981 27.9356 75.3776 29.0367 75.3776 30.3879H76.3776C76.3776 29.3295 76.7674 28.5297 77.5468 27.9337L76.9394 27.1394ZM75.3776 30.3879C75.3776 31.2476 75.6417 32.0157 76.1717 32.6703L76.949 32.0412C76.5687 31.5714 76.3776 31.0275 76.3776 30.3879H75.3776ZM76.1887 32.6902C76.7126 33.2724 77.3606 33.7739 78.1247 34.1984L78.6104 33.3243C77.9288 32.9456 77.3719 32.5101 76.932 32.0213L76.1887 32.6902ZM78.1374 34.2052C78.8747 34.5875 79.8636 35.0478 81.0999 35.5853L81.4986 34.6683C80.2717 34.1348 79.3062 33.6848 78.5977 33.3175L78.1374 34.2052ZM81.0934 35.5825C82.7449 36.3283 84.0514 36.9889 85.0195 37.5646L85.5306 36.705C84.5175 36.1026 83.1735 35.4246 81.505 34.6711L81.0934 35.5825ZM85.0246 37.5675C85.9762 38.1184 86.7939 38.8713 87.4779 39.834L88.2931 39.2548C87.5313 38.1827 86.6088 37.3292 85.5256 36.7021L85.0246 37.5675ZM87.4816 39.8391C88.1303 40.7281 88.4698 41.8507 88.4698 43.2391H89.4698C89.4698 41.6824 89.0864 40.3419 88.2894 39.2497L87.4816 39.8391ZM88.4698 43.2391C88.4698 44.6937 88.0705 45.9855 87.2742 47.1302L88.0951 47.7013C89.0123 46.3828 89.4698 44.8902 89.4698 43.2391H88.4698ZM87.2772 47.126C86.4794 48.2478 85.3498 49.1456 83.8658 49.8109L84.2748 50.7234C85.8965 49.9964 87.1764 48.9933 88.0922 47.7055L87.2772 47.126ZM83.8724 49.8079C82.3926 50.4458 80.6815 50.7711 78.729 50.7711V51.7711C80.7925 51.7711 82.6423 51.4271 84.2682 50.7263L83.8724 49.8079Z" fill="#D4FAFF"/>
<path d="M74.3983 85.6142C71.4891 85.6142 69.2864 84.9631 67.7902 83.6609C66.2941 82.3586 65.546 80.6685 65.546 78.5905C65.546 78.2304 65.6014 77.6901 65.7122 76.9697C66.0447 75.1134 66.9036 73.4094 68.2889 71.8578C69.6466 70.3062 71.5029 69.2534 73.858 68.6993L68.8292 56.73H74.4814L79.053 68.2837H82.7103L84.7467 56.73H89.4845L84.3727 85.6142H74.3983ZM70.5747 76.9697C70.4916 77.3853 70.4501 77.787 70.4501 78.1749C70.4501 79.3663 70.838 80.2806 71.6137 80.9179C72.3618 81.5829 73.5117 81.9153 75.0632 81.9153H80.2998L82.0453 72.0241H76.8087C75.0355 72.0241 73.6225 72.4674 72.5696 73.354C71.4891 74.2406 70.8241 75.4458 70.5747 76.9697ZM54.0407 81.9569L55.5784 73.1877H45.604L46.2274 69.5305H56.2018L57.8226 60.4288H46.6014L47.2664 56.73L63.2254 56.73L58.1136 85.6557H42.1545L42.8195 81.9569H54.0407ZM30.9577 56.4391C32.7309 56.4391 34.324 56.7161 35.7371 57.2703C37.1501 57.8521 38.2722 58.6833 39.1034 59.7639C39.9346 60.8721 40.3502 62.1743 40.3502 63.6705C40.3502 63.8644 40.3225 64.2108 40.2671 64.7095H35.5708C35.6817 63.435 35.3076 62.3683 34.4487 61.5094C33.5898 60.6782 32.3569 60.2626 30.7499 60.2626C29.0321 60.2626 27.6883 60.6089 26.7186 61.3016C25.7488 62.022 25.264 63.0471 25.264 64.377C25.264 65.1805 25.5133 65.8593 26.012 66.4135C26.4831 66.9953 27.0926 67.4802 27.8407 67.8681C28.5611 68.256 29.5723 68.7131 30.8746 69.2395C32.5924 69.9599 33.9639 70.611 34.989 71.1929C36.0141 71.7747 36.9008 72.5782 37.6488 73.6033C38.3692 74.6285 38.7294 75.9168 38.7294 77.4684C38.7294 79.1862 38.2861 80.6824 37.3995 81.9569C36.5129 83.2591 35.2938 84.2566 33.7422 84.9492C32.1629 85.6419 30.3897 85.9882 28.4225 85.9882C26.4553 85.9882 24.7652 85.6557 23.3522 84.9908C21.9115 84.3535 20.8309 83.4392 20.1105 82.2478C19.3624 81.0841 19.03 79.7127 19.1131 78.1334H24.1003C23.9895 79.2694 24.3358 80.2114 25.1393 80.9595C25.9428 81.7352 27.1065 82.1231 28.6303 82.1231C30.2373 82.1231 31.5257 81.7491 32.4954 81.001C33.4374 80.2806 33.9084 79.2971 33.9084 78.0503C33.9084 77.2745 33.6729 76.5957 33.2019 76.0138C32.7032 75.4597 32.0798 74.9748 31.3317 74.5592C30.5836 74.1713 29.5723 73.7003 28.2978 73.1462C26.58 72.3704 25.2085 71.6777 24.1834 71.0682C23.1305 70.4586 22.2301 69.6274 21.482 68.5746C20.7339 67.5494 20.3599 66.2749 20.3599 64.7511C20.3599 63.1441 20.8032 61.7033 21.6898 60.4288C22.5764 59.182 23.8232 58.1984 25.4302 57.4781C27.0372 56.7854 28.8797 56.4391 30.9577 56.4391Z" fill="black"/>
<path d="M67.7902 83.6609L68.1185 83.2837L68.1185 83.2837L67.7902 83.6609ZM65.7122 76.9697L65.2199 76.8815L65.218 76.8937L65.7122 76.9697ZM68.2889 71.8578L68.6619 72.1908L68.6652 72.1871L68.2889 71.8578ZM73.858 68.6993L73.9725 69.186L74.5479 69.0506L74.319 68.5056L73.858 68.6993ZM68.8292 56.73V56.23H68.0768L68.3683 56.9237L68.8292 56.73ZM74.4814 56.73L74.9463 56.546L74.8213 56.23H74.4814V56.73ZM79.053 68.2837L78.5881 68.4676L78.7131 68.7837H79.053V68.2837ZM82.7103 68.2837V68.7837H83.1298L83.2027 68.3705L82.7103 68.2837ZM84.7467 56.73V56.23H84.3271L84.2543 56.6432L84.7467 56.73ZM89.4845 56.73L89.9769 56.8171L90.0808 56.23H89.4845V56.73ZM84.3727 85.6142V86.1142H84.7919L84.865 85.7013L84.3727 85.6142ZM70.5747 76.9697L71.065 77.0678L71.0668 77.0591L71.0682 77.0504L70.5747 76.9697ZM71.6137 80.9179L71.9459 80.5442L71.9386 80.5377L71.9311 80.5315L71.6137 80.9179ZM80.2998 81.9153V82.4153H80.7193L80.7922 82.0022L80.2998 81.9153ZM82.0453 72.0241L82.5377 72.111L82.6413 71.5241H82.0453V72.0241ZM72.5696 73.354L72.8868 73.7405L72.8917 73.7364L72.5696 73.354ZM74.3983 85.1142C71.5547 85.1142 69.4893 84.4768 68.1185 83.2837L67.462 84.038C69.0835 85.4493 71.4234 86.1142 74.3983 86.1142V85.1142ZM68.1185 83.2837C66.7372 82.0815 66.046 80.5318 66.046 78.5905H65.046C65.046 80.8053 65.8509 82.6358 67.462 84.038L68.1185 83.2837ZM66.046 78.5905C66.046 78.2702 66.0964 77.7609 66.2064 77.0457L65.218 76.8937C65.1064 77.6192 65.046 78.1905 65.046 78.5905H66.046ZM66.2044 77.0579C66.5189 75.3018 67.3317 73.6807 68.6619 72.1908L67.916 71.5248C66.4756 73.1381 65.5705 74.9249 65.2201 76.8816L66.2044 77.0579ZM68.6652 72.1871C69.9428 70.727 71.7008 69.7205 73.9725 69.186L73.7435 68.2126C71.305 68.7863 69.3503 69.8855 67.9127 71.5286L68.6652 72.1871ZM74.319 68.5056L69.2902 56.5363L68.3683 56.9237L73.397 68.8929L74.319 68.5056ZM68.8292 57.23H74.4814V56.23H68.8292V57.23ZM74.0165 56.9139L78.5881 68.4676L79.5179 68.0997L74.9463 56.546L74.0165 56.9139ZM79.053 68.7837H82.7103V67.7837H79.053V68.7837ZM83.2027 68.3705L85.2391 56.8168L84.2543 56.6432L82.2179 68.1969L83.2027 68.3705ZM84.7467 57.23H89.4845V56.23H84.7467V57.23ZM88.9922 56.6428L83.8803 85.527L84.865 85.7013L89.9769 56.8171L88.9922 56.6428ZM84.3727 85.1142H74.3983V86.1142H84.3727V85.1142ZM70.0845 76.8716C69.9955 77.3166 69.9501 77.7513 69.9501 78.1749H70.9501C70.9501 77.8228 70.9878 77.454 71.065 77.0678L70.0845 76.8716ZM69.9501 78.1749C69.9501 79.485 70.383 80.554 71.2964 81.3043L71.9311 80.5315C71.2929 80.0073 70.9501 79.2477 70.9501 78.1749H69.9501ZM71.2816 81.2916C72.1601 82.0725 73.4538 82.4153 75.0632 82.4153V81.4153C73.5695 81.4153 72.5636 81.0932 71.9459 80.5442L71.2816 81.2916ZM75.0632 82.4153H80.2998V81.4153H75.0632V82.4153ZM80.7922 82.0022L82.5377 72.111L81.5529 71.9372L79.8074 81.8284L80.7922 82.0022ZM82.0453 71.5241H76.8087V72.5241H82.0453V71.5241ZM76.8087 71.5241C74.9523 71.5241 73.4139 71.9893 72.2476 72.9715L72.8917 73.7364C73.831 72.9454 75.1187 72.5241 76.8087 72.5241V71.5241ZM72.2525 72.9674C71.0678 73.9394 70.3481 75.2586 70.0813 76.889L71.0682 77.0504C71.3001 75.633 71.9103 74.5417 72.8868 73.7405L72.2525 72.9674ZM54.0407 81.9569V82.4569H54.4606L54.5332 82.0433L54.0407 81.9569ZM55.5784 73.1877L56.0709 73.2741L56.1737 72.6877H55.5784V73.1877ZM45.604 73.1877L45.1111 73.1037L45.0116 73.6877H45.604V73.1877ZM46.2274 69.5305V69.0305H45.8054L45.7345 69.4464L46.2274 69.5305ZM56.2018 69.5305V70.0305H56.6206L56.6941 69.6181L56.2018 69.5305ZM57.8226 60.4288L58.3149 60.5165L58.4196 59.9288H57.8226V60.4288ZM46.6014 60.4288L46.1093 60.3404L46.0035 60.9288H46.6014V60.4288ZM47.2664 56.73V56.23H46.8483L46.7743 56.6415L47.2664 56.73ZM63.2254 56.73L63.7178 56.817L63.8216 56.23H63.2254V56.73ZM58.1136 85.6557V86.1557H58.533L58.6059 85.7428L58.1136 85.6557ZM42.1545 85.6557L41.6624 85.5673L41.5566 86.1557H42.1545V85.6557ZM42.8195 81.9569V81.4569H42.4014L42.3274 81.8684L42.8195 81.9569ZM54.5332 82.0433L56.0709 73.2741L55.0859 73.1014L53.5482 81.8705L54.5332 82.0433ZM55.5784 72.6877H45.604V73.6877H55.5784V72.6877ZM46.0969 73.2718L46.7203 69.6145L45.7345 69.4464L45.1111 73.1037L46.0969 73.2718ZM46.2274 70.0305H56.2018V69.0305H46.2274V70.0305ZM56.6941 69.6181L58.3149 60.5165L57.3304 60.3412L55.7096 69.4428L56.6941 69.6181ZM57.8226 59.9288H46.6014V60.9288H57.8226V59.9288ZM47.0936 60.5173L47.7585 56.8184L46.7743 56.6415L46.1093 60.3404L47.0936 60.5173ZM47.2664 57.23L63.2254 57.23V56.23L47.2664 56.23V57.23ZM62.7331 56.643L57.6212 85.5687L58.6059 85.7428L63.7178 56.817L62.7331 56.643ZM58.1136 85.1557H42.1545V86.1557H58.1136V85.1557ZM42.6466 85.7442L43.3116 82.0454L42.3274 81.8684L41.6624 85.5673L42.6466 85.7442ZM42.8195 82.4569H54.0407V81.4569H42.8195V82.4569ZM35.7371 57.2703L35.9275 56.8079L35.9196 56.8048L35.7371 57.2703ZM39.1034 59.7639L39.5035 59.4638L39.4998 59.459L39.1034 59.7639ZM40.2671 64.7095V65.2095H40.7146L40.7641 64.7647L40.2671 64.7095ZM35.5708 64.7095L35.0727 64.6662L35.0255 65.2095H35.5708V64.7095ZM34.4487 61.5094L34.8023 61.1558L34.7964 61.1501L34.4487 61.5094ZM26.7186 61.3016L26.4279 60.8946L26.4204 60.9002L26.7186 61.3016ZM26.012 66.4135L26.4007 66.0989L26.3924 66.0887L26.3837 66.079L26.012 66.4135ZM27.8407 67.8681L28.0778 67.4278L28.0708 67.4242L27.8407 67.8681ZM30.8746 69.2395L31.0679 68.7784L31.062 68.776L30.8746 69.2395ZM37.6488 73.6033L38.058 73.3158L38.0527 73.3086L37.6488 73.6033ZM37.3995 81.9569L36.989 81.6714L36.9862 81.6755L37.3995 81.9569ZM33.7422 84.9492L33.943 85.4071L33.946 85.4058L33.7422 84.9492ZM23.3522 84.9908L23.5652 84.5382L23.5545 84.5335L23.3522 84.9908ZM20.1105 82.2478L20.5385 81.989L20.5311 81.9774L20.1105 82.2478ZM19.1131 78.1334V77.6334H18.6387L18.6138 78.1071L19.1131 78.1334ZM24.1003 78.1334L24.5979 78.1819L24.6514 77.6334H24.1003V78.1334ZM25.1393 80.9595L25.4866 80.5997L25.48 80.5935L25.1393 80.9595ZM32.4954 81.001L32.1917 80.6038L32.19 80.6051L32.4954 81.001ZM33.2019 76.0138L33.5905 75.6992L33.5823 75.6891L33.5736 75.6793L33.2019 76.0138ZM31.3317 74.5592L31.5745 74.1221L31.5683 74.1187L31.5619 74.1153L31.3317 74.5592ZM28.2978 73.1462L28.092 73.6019L28.0985 73.6047L28.2978 73.1462ZM24.1834 71.0682L24.439 70.6384L24.4339 70.6355L24.1834 71.0682ZM21.482 68.5746L21.8896 68.285L21.8859 68.2798L21.482 68.5746ZM21.6898 60.4288L21.2823 60.139L21.2793 60.1433L21.6898 60.4288ZM25.4302 57.4781L25.2323 57.0189L25.2257 57.0218L25.4302 57.4781ZM30.9577 56.9391C32.6788 56.9391 34.2086 57.2079 35.5545 57.7357L35.9196 56.8048C34.4395 56.2243 32.783 55.9391 30.9577 55.9391V56.9391ZM35.5467 57.7326C36.8885 58.2851 37.9358 59.066 38.7071 60.0687L39.4998 59.459C38.6087 58.3006 37.4117 57.4191 35.9275 56.8079L35.5467 57.7326ZM38.7034 60.0639C39.4644 61.0785 39.8502 62.2733 39.8502 63.6705H40.8502C40.8502 62.0753 40.4049 60.6657 39.5034 59.4639L38.7034 60.0639ZM39.8502 63.6705C39.8502 63.8333 39.8258 64.154 39.7702 64.6543L40.7641 64.7647C40.8193 64.2675 40.8502 63.8956 40.8502 63.6705H39.8502ZM40.2671 64.2095H35.5708V65.2095H40.2671V64.2095ZM36.069 64.7528C36.1918 63.3401 35.7718 62.1254 34.8023 61.1558L34.0952 61.8629C34.8434 62.6112 35.1715 63.5299 35.0727 64.6662L36.069 64.7528ZM34.7964 61.1501C33.8158 60.2011 32.4408 59.7626 30.7499 59.7626V60.7626C32.2729 60.7626 33.3638 61.1552 34.101 61.8687L34.7964 61.1501ZM30.7499 59.7626C28.972 59.7626 27.5125 60.1201 26.4279 60.8947L27.0092 61.7084C27.8641 61.0978 29.0921 60.7626 30.7499 60.7626V59.7626ZM26.4204 60.9002C25.3096 61.7254 24.764 62.9074 24.764 64.377H25.764C25.764 63.1868 26.1881 62.3185 27.0167 61.703L26.4204 60.9002ZM24.764 64.377C24.764 65.2936 25.0523 66.0945 25.6404 66.7479L26.3837 66.079C25.9743 65.6241 25.764 65.0674 25.764 64.377H24.764ZM25.6234 66.7281C26.1429 67.3698 26.809 67.8963 27.6105 68.3119L28.0708 67.4242C27.3762 67.064 26.8232 66.6208 26.4007 66.0989L25.6234 66.7281ZM27.6036 68.3083C28.3475 68.7088 29.3781 69.1739 30.6872 69.7031L31.062 68.776C29.7666 68.2523 28.7746 67.8031 28.0777 67.4278L27.6036 68.3083ZM30.6812 69.7006C32.3899 70.4172 33.7412 71.0596 34.7422 71.6277L35.2358 70.758C34.1865 70.1624 32.7949 69.5026 31.0679 68.7784L30.6812 69.7006ZM34.7422 71.6277C35.701 72.1719 36.5354 72.9258 37.2449 73.8981L38.0527 73.3086C37.2661 72.2306 36.3273 71.3775 35.2358 70.758L34.7422 71.6277ZM37.2397 73.8908C37.8882 74.8135 38.2294 75.995 38.2294 77.4684H39.2294C39.2294 75.8387 38.8503 74.4434 38.0579 73.3159L37.2397 73.8908ZM38.2294 77.4684C38.2294 79.0955 37.8112 80.4895 36.989 81.6714L37.8099 82.2424C38.761 80.8753 39.2294 79.277 39.2294 77.4684H38.2294ZM36.9862 81.6755C36.1559 82.895 35.0121 83.8347 33.5384 84.4927L33.946 85.4058C35.5754 84.6784 36.8698 83.6232 37.8128 82.2383L36.9862 81.6755ZM33.5414 84.4913C32.0337 85.1526 30.3303 85.4882 28.4225 85.4882V86.4882C30.4491 86.4882 32.2921 86.1312 33.943 85.4071L33.5414 84.4913ZM28.4225 85.4882C26.5104 85.4882 24.8966 85.165 23.5651 84.5384L23.1393 85.4432C24.6339 86.1465 26.4003 86.4882 28.4225 86.4882V85.4882ZM23.5545 84.5335C22.1947 83.9321 21.1989 83.0815 20.5384 81.9891L19.6827 82.5065C20.4629 83.7969 21.6282 84.775 23.1499 85.448L23.5545 84.5335ZM20.5311 81.9774C19.8476 80.9142 19.534 79.6498 19.6124 78.1597L18.6138 78.1071C18.526 79.7755 18.8773 81.2541 19.6899 82.5182L20.5311 81.9774ZM19.1131 78.6334H24.1003V77.6334H19.1131V78.6334ZM23.6026 78.0848C23.4774 79.3687 23.8759 80.4663 24.7986 81.3254L25.48 80.5935C24.7957 79.9564 24.5015 79.17 24.5979 78.1819L23.6026 78.0848ZM24.792 81.3192C25.7184 82.2136 27.025 82.6231 28.6303 82.6231V81.6231C27.1879 81.6231 26.1672 81.2569 25.4866 80.5998L24.792 81.3192ZM28.6303 82.6231C30.3133 82.6231 31.7197 82.2309 32.8008 81.3969L32.19 80.6051C31.3317 81.2673 30.1614 81.6231 28.6303 81.6231V82.6231ZM32.7991 81.3982C33.8721 80.5777 34.4084 79.4435 34.4084 78.0503H33.4084C33.4084 79.1506 33.0028 79.9836 32.1917 80.6038L32.7991 81.3982ZM34.4084 78.0503C34.4084 77.1645 34.1364 76.3735 33.5905 75.6992L32.8133 76.3284C33.2095 76.8178 33.4084 77.3845 33.4084 78.0503H34.4084ZM33.5736 75.6793C33.0329 75.0785 32.3639 74.5607 31.5745 74.1221L31.0889 74.9963C31.7957 75.389 32.3735 75.8408 32.8303 76.3483L33.5736 75.6793ZM31.5619 74.1153C30.7994 73.72 29.7764 73.2438 28.4972 72.6876L28.0985 73.6047C29.3683 74.1568 30.3679 74.6227 31.1016 75.0031L31.5619 74.1153ZM28.5036 72.6905C26.7943 71.9185 25.4416 71.2346 24.4389 70.6384L23.9279 71.498C24.9755 72.1209 26.3657 72.8222 28.092 73.6019L28.5036 72.6905ZM24.4339 70.6355C23.4469 70.064 22.5988 69.2831 21.8896 68.285L21.0744 68.8642C21.8614 69.9718 22.8142 70.8533 23.9329 71.5009L24.4339 70.6355ZM21.8859 68.2798C21.212 67.3564 20.8599 66.1908 20.8599 64.7511H19.8599C19.8599 66.3591 20.2558 67.7425 21.0781 68.8693L21.8859 68.2798ZM20.8599 64.7511C20.8599 63.2424 21.2741 61.902 22.1003 60.7144L21.2793 60.1433C20.3323 61.5047 19.8599 63.0458 19.8599 64.7511H20.8599ZM22.0973 60.7186C22.9249 59.5547 24.0965 58.6238 25.6347 57.9343L25.2257 57.0218C23.5499 57.773 22.2279 58.8093 21.2823 60.1391L22.0973 60.7186ZM25.6281 57.9372C27.162 57.2761 28.9352 56.9391 30.9577 56.9391V55.9391C28.8242 55.9391 26.9124 56.2947 25.2323 57.0189L25.6281 57.9372Z" fill="#D4FAFF"/>
</svg>
