<svg width="1080" height="1083" viewBox="0 0 1080 1083" fill="none" xmlns="http://www.w3.org/2000/svg">
<path d="M399.763 111.941L418.721 205.022L348.902 221.011L348.229 221.165L348.577 221.77L478.612 447.994L275.814 573.953L145.779 347.728L145.431 347.123L144.981 347.666L98.351 404.007L27.4589 343.179L89.1651 249.996L145.417 211.533L174.938 221.986L175.167 222.067L175.372 221.928L236.477 180.257L236.702 180.103L236.702 179.827L236.702 150.265L292.589 123.64L399.763 111.941Z" fill="#5B7B65" stroke="black"/>
<path d="M756.221 204.504L698.945 278.723L642.818 232.701L642.272 232.254L642.043 232.915L556.033 480.82L333.807 397.509L419.817 149.605L420.047 148.943L419.352 148.925L347.88 147.114L348.246 51.5569L456.698 42.1537L520.959 63.028L531.88 93.3924L531.965 93.6297L532.202 93.707L601.93 116.454L602.19 116.539L602.396 116.363L624.399 97.6367L679.617 125.716L756.221 204.504Z" fill="#A89C84" stroke="black"/>
<path d="M494.717 305.598L478.81 399.302L408.315 386.989L407.626 386.869L407.73 387.563L446.94 647.928L213.55 685.906L174.341 425.541L174.236 424.847L173.615 425.181L110.107 459.301L66.2403 375.322L156.995 312.888L222.995 299.086L246.611 320.255L246.796 320.421L247.042 320.37L318.705 305.478L318.974 305.422L319.074 305.165L329.709 277.75L391.11 274.784L494.717 305.598Z" fill="#F2F0E9" stroke="black"/>
<path d="M847.145 420.527L774.416 478.291L730.546 419.61L730.124 419.046L729.748 419.632L589.035 638.843L392.522 502.541L533.234 283.33L533.611 282.744L532.947 282.555L463.974 262.97L486.382 170.301L593.836 188.219L651.408 224.513L655.002 256.716L655.03 256.966L655.238 257.097L717.68 296.569L717.909 296.714L718.149 296.596L743.833 283.903L790.963 324.937L847.145 420.527Z" fill="#E5DFD1" stroke="black"/>
<path d="M177.733 473.272C177.733 473.272 155.595 503.099 437.239 503.099C718.883 503.099 718.883 473.272 718.883 473.272V1010.16C718.883 1010.16 696.745 1053.65 437.239 1053.65C177.733 1053.65 177.733 1010.16 177.733 1010.16V741.714V473.272Z" fill="#979797"/>
<path d="M177.733 473.272C177.733 473.272 155.595 503.099 437.239 503.099C718.883 503.099 718.883 473.272 718.883 473.272V1010.16C718.883 1010.16 696.745 1053.65 437.239 1053.65C177.733 1053.65 177.733 1010.16 177.733 1010.16V741.714V473.272Z" fill="url(#paint0_linear_4_64)" fill-opacity="0.2"/>
<path d="M177.733 473.272C177.733 473.272 155.595 503.099 437.239 503.099C718.883 503.099 718.883 473.272 718.883 473.272V1010.16C718.883 1010.16 696.745 1053.65 437.239 1053.65C177.733 1053.65 177.733 1010.16 177.733 1010.16V741.714V473.272Z" fill="#979797"/>
<path d="M177.733 473.272C177.733 473.272 155.595 503.099 437.239 503.099C718.883 503.099 718.883 473.272 718.883 473.272V1010.16C718.883 1010.16 696.745 1053.65 437.239 1053.65C177.733 1053.65 177.733 1010.16 177.733 1010.16V741.714V473.272Z" fill="url(#paint1_linear_4_64)" fill-opacity="0.2"/>
<path d="M177.733 473.272V741.714V1010.16C177.733 1010.16 177.733 1053.65 437.239 1053.65C696.745 1053.65 718.883 1010.16 718.883 1010.16V473.272C718.883 473.272 718.883 503.099 437.239 503.099C155.595 503.099 177.733 473.272 177.733 473.272Z" stroke="black" stroke-width="4"/>
<path d="M178.006 998.854C178.006 998.854 150.958 1046.18 437.586 1046.18C724.215 1046.18 720.347 998.854 720.347 998.854V1046.18C720.347 1046.18 684.403 1080 442.379 1080C200.355 1080 178.006 1046.18 178.006 1046.18V998.854Z" fill="#636363"/>
<path d="M178.006 998.854C178.006 998.854 150.958 1046.18 437.586 1046.18C724.215 1046.18 720.347 998.854 720.347 998.854V1046.18C720.347 1046.18 684.403 1080 442.379 1080C200.355 1080 178.006 1046.18 178.006 1046.18V998.854Z" fill="url(#paint2_linear_4_64)" fill-opacity="0.2"/>
<path d="M178.006 998.854C178.006 998.854 150.958 1046.18 437.586 1046.18C724.215 1046.18 720.347 998.854 720.347 998.854V1046.18C720.347 1046.18 684.403 1080 442.379 1080C200.355 1080 178.006 1046.18 178.006 1046.18V998.854Z" fill="#636363"/>
<path d="M178.006 998.854C178.006 998.854 150.958 1046.18 437.586 1046.18C724.215 1046.18 720.347 998.854 720.347 998.854V1046.18C720.347 1046.18 684.403 1080 442.379 1080C200.355 1080 178.006 1046.18 178.006 1046.18V998.854Z" fill="url(#paint3_linear_4_64)" fill-opacity="0.2"/>
<path d="M178.006 998.854V1046.18C178.006 1046.18 200.355 1080 442.379 1080C684.403 1080 720.347 1046.18 720.347 1046.18V998.854C720.347 998.854 724.215 1046.18 437.586 1046.18C150.958 1046.18 178.006 998.854 178.006 998.854Z" stroke="black" stroke-width="5"/>
<path d="M175.608 453.345C175.608 453.345 148.633 483.853 434.487 483.853C720.342 483.853 716.484 453.345 716.484 453.345V483.853C716.484 483.853 680.637 505.654 439.267 505.654C197.897 505.654 175.608 483.853 175.608 483.853V453.345Z" fill="#636363"/>
<path d="M175.608 453.345C175.608 453.345 148.633 483.853 434.487 483.853C720.342 483.853 716.484 453.345 716.484 453.345V483.853C716.484 483.853 680.637 505.654 439.267 505.654C197.897 505.654 175.608 483.853 175.608 483.853V453.345Z" fill="url(#paint4_linear_4_64)" fill-opacity="0.2"/>
<path d="M175.608 453.345C175.608 453.345 148.633 483.853 434.487 483.853C720.342 483.853 716.484 453.345 716.484 453.345V483.853C716.484 483.853 680.637 505.654 439.267 505.654C197.897 505.654 175.608 483.853 175.608 483.853V453.345Z" fill="#636363"/>
<path d="M175.608 453.345C175.608 453.345 148.633 483.853 434.487 483.853C720.342 483.853 716.484 453.345 716.484 453.345V483.853C716.484 483.853 680.637 505.654 439.267 505.654C197.897 505.654 175.608 483.853 175.608 483.853V453.345Z" fill="url(#paint5_linear_4_64)" fill-opacity="0.2"/>
<path d="M175.608 453.345V483.853C175.608 483.853 197.897 505.654 439.267 505.654C680.637 505.654 716.484 483.853 716.484 483.853V453.345C716.484 453.345 720.342 483.853 434.487 483.853C148.633 483.853 175.608 453.345 175.608 453.345Z" stroke="black" stroke-width="5"/>
<path d="M1008.45 572.723C999.137 584.127 984.395 588.358 965.554 586.587C946.711 584.815 923.853 577.043 898.45 564.553C847.651 539.577 786.802 495.798 727.787 443.744C668.77 391.689 619.396 339.168 589.043 294.46C573.864 272.102 563.463 251.729 558.977 234.365C554.49 217.003 555.936 202.738 564.318 192.469C564.51 192.234 564.701 192 564.891 191.767C573.202 181.582 580.59 172.527 590.494 167.64C600.585 162.66 613.364 161.978 632.523 169.11C651.696 176.247 677.203 191.191 712.696 217.389C748.183 243.582 793.626 281.007 852.665 333.081C896.404 371.661 931.058 402.227 957.677 427.313C984.3 452.403 1002.86 471.987 1014.42 488.601C1025.99 505.211 1030.52 518.794 1029.19 531.901C1027.86 545.027 1020.64 557.786 1008.45 572.723Z" fill="#636363"/>
<path d="M1008.45 572.723C999.137 584.127 984.395 588.358 965.554 586.587C946.711 584.815 923.853 577.043 898.45 564.553C847.651 539.577 786.802 495.798 727.787 443.744C668.77 391.689 619.396 339.168 589.043 294.46C573.864 272.102 563.463 251.729 558.977 234.365C554.49 217.003 555.936 202.738 564.318 192.469C564.51 192.234 564.701 192 564.891 191.767C573.202 181.582 580.59 172.527 590.494 167.64C600.585 162.66 613.364 161.978 632.523 169.11C651.696 176.247 677.203 191.191 712.696 217.389C748.183 243.582 793.626 281.007 852.665 333.081C896.404 371.661 931.058 402.227 957.677 427.313C984.3 452.403 1002.86 471.987 1014.42 488.601C1025.99 505.211 1030.52 518.794 1029.19 531.901C1027.86 545.027 1020.64 557.786 1008.45 572.723Z" fill="url(#paint6_linear_4_64)" fill-opacity="0.2"/>
<path d="M1008.45 572.723C999.137 584.127 984.395 588.358 965.554 586.587C946.711 584.815 923.853 577.043 898.45 564.553C847.651 539.577 786.802 495.798 727.787 443.744C668.77 391.689 619.396 339.168 589.043 294.46C573.864 272.102 563.463 251.729 558.977 234.365C554.49 217.003 555.936 202.738 564.318 192.469C564.51 192.234 564.701 192 564.891 191.767C573.202 181.582 580.59 172.527 590.494 167.64C600.585 162.66 613.364 161.978 632.523 169.11C651.696 176.247 677.203 191.191 712.696 217.389C748.183 243.582 793.626 281.007 852.665 333.081C896.404 371.661 931.058 402.227 957.677 427.313C984.3 452.403 1002.86 471.987 1014.42 488.601C1025.99 505.211 1030.52 518.794 1029.19 531.901C1027.86 545.027 1020.64 557.786 1008.45 572.723Z" stroke="black"/>
<path d="M1024.59 551.025C1017.15 560.137 1004.43 563.075 987.464 560.563C970.514 558.054 949.457 550.116 925.53 537.661C877.685 512.753 818.488 469.843 757.958 416.454C697.429 363.065 647.062 309.337 615.632 264.32C599.915 241.808 588.952 221.503 583.811 204.528C578.666 187.54 579.384 174.013 586.821 164.901C594.266 155.781 607.435 152.317 625.057 154.031C642.663 155.743 664.593 162.616 689.387 174.003C738.971 196.773 799.906 237.544 860.426 290.925C920.947 344.306 969.565 400.165 999.25 447.312C1014.09 470.889 1024.19 492.261 1028.68 510.039C1033.18 527.834 1032.03 541.905 1024.59 551.025Z" fill="url(#paint7_radial_4_64)"/>
<path d="M1024.59 551.025C1017.15 560.137 1004.43 563.075 987.464 560.563C970.514 558.054 949.457 550.116 925.53 537.661C877.685 512.753 818.488 469.843 757.958 416.454C697.429 363.065 647.062 309.337 615.632 264.32C599.915 241.808 588.952 221.503 583.811 204.528C578.666 187.54 579.384 174.013 586.821 164.901C594.266 155.781 607.435 152.317 625.057 154.031C642.663 155.743 664.593 162.616 689.387 174.003C738.971 196.773 799.906 237.544 860.426 290.925C920.947 344.306 969.565 400.165 999.25 447.312C1014.09 470.889 1024.19 492.261 1028.68 510.039C1033.18 527.834 1032.03 541.905 1024.59 551.025Z" fill="black" fill-opacity="0.2"/>
<path d="M1024.59 551.025C1017.15 560.137 1004.43 563.075 987.464 560.563C970.514 558.054 949.457 550.116 925.53 537.661C877.685 512.753 818.488 469.843 757.958 416.454C697.429 363.065 647.062 309.337 615.632 264.32C599.915 241.808 588.952 221.503 583.811 204.528C578.666 187.54 579.384 174.013 586.821 164.901C594.266 155.781 607.435 152.317 625.057 154.031C642.663 155.743 664.593 162.616 689.387 174.003C738.971 196.773 799.906 237.544 860.426 290.925C920.947 344.306 969.565 400.165 999.25 447.312C1014.09 470.889 1024.19 492.261 1028.68 510.039C1033.18 527.834 1032.03 541.905 1024.59 551.025Z" stroke="black"/>
<g filter="url(#filter0_i_4_64)">
<path d="M692.524 511.932C692.524 511.932 683.999 505.654 678.146 505.654C672.294 505.654 663.769 511.932 663.769 511.932V981.512C675 991.44 681.293 991.258 692.524 981.512V511.932Z" fill="#D9D9D9"/>
</g>
<path d="M663.869 511.983V981.467C669.465 986.408 673.813 988.812 678.146 988.79C682.479 988.767 686.828 986.317 692.424 981.466V511.983L692.368 511.942C692.305 511.897 692.211 511.83 692.089 511.744C691.845 511.573 691.49 511.328 691.045 511.034C690.156 510.447 688.91 509.664 687.482 508.881C684.62 507.312 681.045 505.754 678.146 505.754C675.248 505.754 671.673 507.312 668.811 508.881C667.382 509.664 666.136 510.447 665.247 511.034C664.803 511.328 664.448 511.573 664.204 511.744C664.082 511.83 663.988 511.897 663.924 511.942L663.869 511.983Z" stroke="black" stroke-width="0.2"/>
<g filter="url(#filter1_i_4_64)">
<path d="M618.239 524.516C618.239 524.516 609.714 518.109 603.862 518.109C598.009 518.109 589.484 524.516 589.484 524.516V1003.78C600.715 1013.91 607.008 1013.72 618.239 1003.78V524.516Z" fill="#D9D9D9"/>
</g>
<path d="M589.584 524.566V1003.73C595.18 1008.78 599.528 1011.23 603.861 1011.21C608.194 1011.18 612.542 1008.68 618.139 1003.73V524.566L618.083 524.524C618.019 524.478 617.925 524.409 617.803 524.322C617.559 524.147 617.204 523.897 616.76 523.598C615.871 522.998 614.625 522.199 613.196 521.399C610.334 519.798 606.76 518.209 603.862 518.209C600.963 518.209 597.389 519.798 594.527 521.399C593.098 522.199 591.852 522.998 590.963 523.598C590.519 523.897 590.164 524.147 589.92 524.322C589.798 524.409 589.704 524.478 589.64 524.524L589.584 524.566Z" stroke="black" stroke-width="0.2"/>
<g filter="url(#filter2_i_4_64)">
<path d="M543.955 539.429C543.955 539.429 535.43 533.054 529.577 533.054C523.724 533.054 515.199 539.429 515.199 539.429V1016.27C526.43 1026.35 532.724 1026.17 543.955 1016.27V539.429Z" fill="#D9D9D9"/>
</g>
<path d="M515.299 539.479V1016.23C520.896 1021.24 525.244 1023.69 529.577 1023.66C533.91 1023.64 538.258 1021.15 543.855 1016.23V539.479L543.799 539.438C543.735 539.392 543.641 539.323 543.519 539.236C543.275 539.063 542.92 538.814 542.476 538.516C541.586 537.919 540.34 537.124 538.912 536.329C536.05 534.735 532.475 533.154 529.577 533.154C526.679 533.154 523.104 534.735 520.242 536.329C518.814 537.124 517.568 537.919 516.679 538.516C516.234 538.814 515.879 539.063 515.635 539.236C515.513 539.323 515.419 539.392 515.356 539.438L515.299 539.479Z" stroke="black" stroke-width="0.2"/>
<g filter="url(#filter3_ii_4_64)">
<path d="M433.726 551.722C433.726 551.722 442.251 545.509 448.104 545.509C453.956 545.509 462.481 551.722 462.481 551.722V1016.46C451.25 1026.29 444.957 1026.11 433.726 1016.46V551.722Z" fill="#D9D9D9"/>
</g>
<path d="M462.381 551.773V1016.42C456.786 1021.31 452.438 1023.68 448.104 1023.66C443.77 1023.64 439.422 1021.22 433.826 1016.41V551.773L433.881 551.733C433.945 551.688 434.039 551.621 434.161 551.537C434.405 551.367 434.76 551.125 435.204 550.835C436.093 550.253 437.339 549.478 438.768 548.703C441.63 547.15 445.205 545.609 448.104 545.609C451.003 545.609 454.577 547.15 457.439 548.703C458.868 549.478 460.114 550.253 461.003 550.835C461.448 551.125 461.803 551.367 462.046 551.537C462.168 551.621 462.263 551.688 462.326 551.733L462.381 551.773Z" stroke="black" stroke-width="0.2"/>
<g filter="url(#filter4_i_4_64)">
<path d="M692.524 511.932C692.524 511.932 683.999 505.654 678.146 505.654C672.294 505.654 663.769 511.932 663.769 511.932V981.512C675 991.44 681.293 991.258 692.524 981.512V511.932Z" fill="#D9D9D9"/>
</g>
<path d="M663.869 511.983V981.467C669.465 986.408 673.813 988.812 678.146 988.79C682.479 988.767 686.828 986.317 692.424 981.466V511.983L692.368 511.942C692.305 511.897 692.211 511.83 692.089 511.744C691.845 511.573 691.49 511.328 691.045 511.034C690.156 510.447 688.91 509.664 687.482 508.881C684.62 507.312 681.045 505.754 678.146 505.754C675.248 505.754 671.673 507.312 668.811 508.881C667.382 509.664 666.136 510.447 665.247 511.034C664.803 511.328 664.448 511.573 664.204 511.744C664.082 511.83 663.988 511.897 663.924 511.942L663.869 511.983Z" stroke="black" stroke-width="0.2"/>
<g filter="url(#filter5_i_4_64)">
<path d="M618.239 524.516C618.239 524.516 609.714 518.109 603.862 518.109C598.009 518.109 589.484 524.516 589.484 524.516V1003.78C600.715 1013.91 607.008 1013.72 618.239 1003.78V524.516Z" fill="#D9D9D9"/>
</g>
<path d="M589.584 524.566V1003.73C595.18 1008.78 599.528 1011.23 603.861 1011.21C608.194 1011.18 612.542 1008.68 618.139 1003.73V524.566L618.083 524.524C618.019 524.478 617.925 524.409 617.803 524.322C617.559 524.147 617.204 523.897 616.76 523.598C615.871 522.998 614.625 522.199 613.196 521.399C610.334 519.798 606.76 518.209 603.862 518.209C600.963 518.209 597.389 519.798 594.527 521.399C593.098 522.199 591.852 522.998 590.963 523.598C590.519 523.897 590.164 524.147 589.92 524.322C589.798 524.409 589.704 524.478 589.64 524.524L589.584 524.566Z" stroke="black" stroke-width="0.2"/>
<g filter="url(#filter6_i_4_64)">
<path d="M543.955 539.429C543.955 539.429 535.43 533.054 529.577 533.054C523.724 533.054 515.199 539.429 515.199 539.429V1016.27C526.43 1026.35 532.724 1026.17 543.955 1016.27V539.429Z" fill="#D9D9D9"/>
</g>
<path d="M515.299 539.479V1016.23C520.896 1021.24 525.244 1023.69 529.577 1023.66C533.91 1023.64 538.258 1021.15 543.855 1016.23V539.479L543.799 539.438C543.735 539.392 543.641 539.323 543.519 539.236C543.275 539.063 542.92 538.814 542.476 538.516C541.586 537.919 540.34 537.124 538.912 536.329C536.05 534.735 532.475 533.154 529.577 533.154C526.679 533.154 523.104 534.735 520.242 536.329C518.814 537.124 517.568 537.919 516.679 538.516C516.234 538.814 515.879 539.063 515.635 539.236C515.513 539.323 515.419 539.392 515.356 539.438L515.299 539.479Z" stroke="black" stroke-width="0.2"/>
<g filter="url(#filter7_i_4_64)">
<path d="M203.683 511.932C203.683 511.932 212.208 505.654 218.061 505.654C223.914 505.654 232.439 511.932 232.439 511.932V981.512C221.208 991.44 214.914 991.258 203.683 981.512V511.932Z" fill="#D9D9D9"/>
</g>
<path d="M232.339 511.983V981.467C226.743 986.408 222.395 988.812 218.062 988.79C213.728 988.767 209.38 986.317 203.783 981.466V511.983L203.839 511.942C203.903 511.897 203.997 511.83 204.119 511.744C204.363 511.573 204.718 511.328 205.162 511.034C206.051 510.447 207.297 509.664 208.726 508.881C211.588 507.312 215.162 505.754 218.061 505.754C220.96 505.754 224.535 507.312 227.397 508.881C228.825 509.664 230.071 510.447 230.96 511.034C231.405 511.328 231.76 511.573 232.004 511.744C232.126 511.83 232.22 511.897 232.283 511.942L232.339 511.983Z" stroke="black" stroke-width="0.2"/>
<g filter="url(#filter8_i_4_64)">
<path d="M277.968 524.516C277.968 524.516 286.493 518.109 292.346 518.109C298.198 518.109 306.723 524.516 306.723 524.516V1003.78C295.492 1013.91 289.199 1013.72 277.968 1003.78V524.516Z" fill="#D9D9D9"/>
</g>
<path d="M306.623 524.566V1003.73C301.027 1008.78 296.679 1011.23 292.346 1011.21C288.013 1011.18 283.665 1008.68 278.068 1003.73V524.566L278.124 524.524C278.188 524.478 278.282 524.409 278.404 524.322C278.648 524.147 279.003 523.897 279.447 523.598C280.336 522.998 281.583 522.199 283.011 521.399C285.873 519.798 289.448 518.209 292.346 518.209C295.244 518.209 298.818 519.798 301.68 521.399C303.109 522.199 304.355 522.998 305.244 523.598C305.688 523.897 306.043 524.147 306.287 524.322C306.409 524.409 306.503 524.478 306.567 524.524L306.623 524.566Z" stroke="black" stroke-width="0.2"/>
<g filter="url(#filter9_i_4_64)">
<path d="M352.253 539.429C352.253 539.429 360.778 533.054 366.63 533.054C372.483 533.054 381.008 539.429 381.008 539.429V1016.27C369.777 1026.35 363.484 1026.17 352.253 1016.27V539.429Z" fill="#D9D9D9"/>
</g>
<path d="M380.908 539.479V1016.23C375.312 1021.24 370.964 1023.69 366.631 1023.66C362.298 1023.64 357.949 1021.15 352.353 1016.23V539.479L352.409 539.438C352.472 539.392 352.567 539.323 352.688 539.236C352.932 539.063 353.287 538.814 353.732 538.516C354.621 537.919 355.867 537.124 357.295 536.329C360.158 534.735 363.732 533.154 366.63 533.154C369.529 533.154 373.103 534.735 375.965 536.329C377.394 537.124 378.64 537.919 379.529 538.516C379.973 538.814 380.328 539.063 380.572 539.236C380.694 539.323 380.788 539.392 380.852 539.438L380.908 539.479Z" stroke="black" stroke-width="0.2"/>
<g filter="url(#filter10_ii_4_64)">
<path d="M433.726 551.722C433.726 551.722 442.251 545.509 448.104 545.509C453.956 545.509 462.481 551.722 462.481 551.722V1016.46C451.25 1026.29 444.957 1026.11 433.726 1016.46V551.722Z" fill="#D9D9D9"/>
</g>
<path d="M462.381 551.773V1016.42C456.786 1021.31 452.438 1023.68 448.104 1023.66C443.77 1023.64 439.422 1021.22 433.826 1016.41V551.773L433.881 551.733C433.945 551.688 434.039 551.621 434.161 551.537C434.405 551.367 434.76 551.125 435.204 550.835C436.093 550.253 437.339 549.478 438.768 548.703C441.63 547.15 445.205 545.609 448.104 545.609C451.003 545.609 454.577 547.15 457.439 548.703C458.868 549.478 460.114 550.253 461.003 550.835C461.448 551.125 461.803 551.367 462.046 551.537C462.168 551.621 462.263 551.688 462.326 551.733L462.381 551.773Z" stroke="black" stroke-width="0.2"/>
<path d="M739.584 233.773L739.442 233.636L739.249 233.636L723.673 233.636L722.494 233.636L723.329 234.504L766.463 279.341L766.478 279.356L766.494 279.37L789.259 299.298L789.591 299.589L789.908 299.283L856.652 234.859L920.698 303.9L864.691 368.312L864.361 368.692L864.731 369.034L886.298 388.961L886.305 388.968L935.429 432.559L936.237 433.276L936.237 432.175L936.237 415.984L936.237 415.743L936.058 415.59L881.356 368.617L942.24 304.249L942.594 303.874L942.22 303.517L851.01 216.335L850.656 215.997L850.324 216.355L789.552 282.004L739.584 233.773Z" fill="#636363" stroke="black"/>
<path d="M643.722 212.506C632.225 233.405 656.075 290.428 649.391 286.454C642.706 282.481 603.659 207.717 615.156 186.818C626.654 165.919 678.65 182.844 685.335 186.818C692.02 190.792 655.22 191.607 643.722 212.506Z" fill="#D9D9D9" fill-opacity="0.3"/>
<defs>
<filter id="filter0_i_4_64" x="663.769" y="505.654" width="32.7554" height="487.236" filterUnits="userSpaceOnUse" color-interpolation-filters="sRGB">
<feFlood flood-opacity="0" result="BackgroundImageFix"/>
<feBlend mode="normal" in="SourceGraphic" in2="BackgroundImageFix" result="shape"/>
<feColorMatrix in="SourceAlpha" type="matrix" values="0 0 0 0 0 0 0 0 0 0 0 0 0 0 0 0 0 0 127 0" result="hardAlpha"/>
<feOffset dx="4" dy="4"/>
<feGaussianBlur stdDeviation="2"/>
<feComposite in2="hardAlpha" operator="arithmetic" k2="-1" k3="1"/>
<feColorMatrix type="matrix" values="0 0 0 0 0 0 0 0 0 0 0 0 0 0 0 0 0 0 0.5 0"/>
<feBlend mode="normal" in2="shape" result="effect1_innerShadow_4_64"/>
</filter>
<filter id="filter1_i_4_64" x="589.484" y="518.109" width="32.7554" height="497.199" filterUnits="userSpaceOnUse" color-interpolation-filters="sRGB">
<feFlood flood-opacity="0" result="BackgroundImageFix"/>
<feBlend mode="normal" in="SourceGraphic" in2="BackgroundImageFix" result="shape"/>
<feColorMatrix in="SourceAlpha" type="matrix" values="0 0 0 0 0 0 0 0 0 0 0 0 0 0 0 0 0 0 127 0" result="hardAlpha"/>
<feOffset dx="4" dy="4"/>
<feGaussianBlur stdDeviation="2"/>
<feComposite in2="hardAlpha" operator="arithmetic" k2="-1" k3="1"/>
<feColorMatrix type="matrix" values="0 0 0 0 0 0 0 0 0 0 0 0 0 0 0 0 0 0 0.5 0"/>
<feBlend mode="normal" in2="shape" result="effect1_innerShadow_4_64"/>
</filter>
<filter id="filter2_i_4_64" x="515.199" y="533.054" width="32.7554" height="494.709" filterUnits="userSpaceOnUse" color-interpolation-filters="sRGB">
<feFlood flood-opacity="0" result="BackgroundImageFix"/>
<feBlend mode="normal" in="SourceGraphic" in2="BackgroundImageFix" result="shape"/>
<feColorMatrix in="SourceAlpha" type="matrix" values="0 0 0 0 0 0 0 0 0 0 0 0 0 0 0 0 0 0 127 0" result="hardAlpha"/>
<feOffset dx="4" dy="4"/>
<feGaussianBlur stdDeviation="2"/>
<feComposite in2="hardAlpha" operator="arithmetic" k2="-1" k3="1"/>
<feColorMatrix type="matrix" values="0 0 0 0 0 0 0 0 0 0 0 0 0 0 0 0 0 0 0.5 0"/>
<feBlend mode="normal" in2="shape" result="effect1_innerShadow_4_64"/>
</filter>
<filter id="filter3_ii_4_64" x="431.726" y="543.509" width="32.7554" height="482.254" filterUnits="userSpaceOnUse" color-interpolation-filters="sRGB">
<feFlood flood-opacity="0" result="BackgroundImageFix"/>
<feBlend mode="normal" in="SourceGraphic" in2="BackgroundImageFix" result="shape"/>
<feColorMatrix in="SourceAlpha" type="matrix" values="0 0 0 0 0 0 0 0 0 0 0 0 0 0 0 0 0 0 127 0" result="hardAlpha"/>
<feOffset dx="2" dy="2"/>
<feGaussianBlur stdDeviation="2"/>
<feComposite in2="hardAlpha" operator="arithmetic" k2="-1" k3="1"/>
<feColorMatrix type="matrix" values="0 0 0 0 0 0 0 0 0 0 0 0 0 0 0 0 0 0 0.5 0"/>
<feBlend mode="normal" in2="shape" result="effect1_innerShadow_4_64"/>
<feColorMatrix in="SourceAlpha" type="matrix" values="0 0 0 0 0 0 0 0 0 0 0 0 0 0 0 0 0 0 127 0" result="hardAlpha"/>
<feOffset dx="-2" dy="-2"/>
<feGaussianBlur stdDeviation="2"/>
<feComposite in2="hardAlpha" operator="arithmetic" k2="-1" k3="1"/>
<feColorMatrix type="matrix" values="0 0 0 0 0 0 0 0 0 0 0 0 0 0 0 0 0 0 0.5 0"/>
<feBlend mode="normal" in2="effect1_innerShadow_4_64" result="effect2_innerShadow_4_64"/>
</filter>
<filter id="filter4_i_4_64" x="663.769" y="505.654" width="32.7554" height="487.236" filterUnits="userSpaceOnUse" color-interpolation-filters="sRGB">
<feFlood flood-opacity="0" result="BackgroundImageFix"/>
<feBlend mode="normal" in="SourceGraphic" in2="BackgroundImageFix" result="shape"/>
<feColorMatrix in="SourceAlpha" type="matrix" values="0 0 0 0 0 0 0 0 0 0 0 0 0 0 0 0 0 0 127 0" result="hardAlpha"/>
<feOffset dx="4" dy="4"/>
<feGaussianBlur stdDeviation="2"/>
<feComposite in2="hardAlpha" operator="arithmetic" k2="-1" k3="1"/>
<feColorMatrix type="matrix" values="0 0 0 0 0 0 0 0 0 0 0 0 0 0 0 0 0 0 0.5 0"/>
<feBlend mode="normal" in2="shape" result="effect1_innerShadow_4_64"/>
</filter>
<filter id="filter5_i_4_64" x="589.484" y="518.109" width="32.7554" height="497.199" filterUnits="userSpaceOnUse" color-interpolation-filters="sRGB">
<feFlood flood-opacity="0" result="BackgroundImageFix"/>
<feBlend mode="normal" in="SourceGraphic" in2="BackgroundImageFix" result="shape"/>
<feColorMatrix in="SourceAlpha" type="matrix" values="0 0 0 0 0 0 0 0 0 0 0 0 0 0 0 0 0 0 127 0" result="hardAlpha"/>
<feOffset dx="4" dy="4"/>
<feGaussianBlur stdDeviation="2"/>
<feComposite in2="hardAlpha" operator="arithmetic" k2="-1" k3="1"/>
<feColorMatrix type="matrix" values="0 0 0 0 0 0 0 0 0 0 0 0 0 0 0 0 0 0 0.5 0"/>
<feBlend mode="normal" in2="shape" result="effect1_innerShadow_4_64"/>
</filter>
<filter id="filter6_i_4_64" x="515.199" y="533.054" width="32.7554" height="494.709" filterUnits="userSpaceOnUse" color-interpolation-filters="sRGB">
<feFlood flood-opacity="0" result="BackgroundImageFix"/>
<feBlend mode="normal" in="SourceGraphic" in2="BackgroundImageFix" result="shape"/>
<feColorMatrix in="SourceAlpha" type="matrix" values="0 0 0 0 0 0 0 0 0 0 0 0 0 0 0 0 0 0 127 0" result="hardAlpha"/>
<feOffset dx="4" dy="4"/>
<feGaussianBlur stdDeviation="2"/>
<feComposite in2="hardAlpha" operator="arithmetic" k2="-1" k3="1"/>
<feColorMatrix type="matrix" values="0 0 0 0 0 0 0 0 0 0 0 0 0 0 0 0 0 0 0.5 0"/>
<feBlend mode="normal" in2="shape" result="effect1_innerShadow_4_64"/>
</filter>
<filter id="filter7_i_4_64" x="203.683" y="505.654" width="32.7554" height="487.236" filterUnits="userSpaceOnUse" color-interpolation-filters="sRGB">
<feFlood flood-opacity="0" result="BackgroundImageFix"/>
<feBlend mode="normal" in="SourceGraphic" in2="BackgroundImageFix" result="shape"/>
<feColorMatrix in="SourceAlpha" type="matrix" values="0 0 0 0 0 0 0 0 0 0 0 0 0 0 0 0 0 0 127 0" result="hardAlpha"/>
<feOffset dx="4" dy="4"/>
<feGaussianBlur stdDeviation="2"/>
<feComposite in2="hardAlpha" operator="arithmetic" k2="-1" k3="1"/>
<feColorMatrix type="matrix" values="0 0 0 0 0 0 0 0 0 0 0 0 0 0 0 0 0 0 0.5 0"/>
<feBlend mode="normal" in2="shape" result="effect1_innerShadow_4_64"/>
</filter>
<filter id="filter8_i_4_64" x="277.968" y="518.109" width="32.7554" height="497.199" filterUnits="userSpaceOnUse" color-interpolation-filters="sRGB">
<feFlood flood-opacity="0" result="BackgroundImageFix"/>
<feBlend mode="normal" in="SourceGraphic" in2="BackgroundImageFix" result="shape"/>
<feColorMatrix in="SourceAlpha" type="matrix" values="0 0 0 0 0 0 0 0 0 0 0 0 0 0 0 0 0 0 127 0" result="hardAlpha"/>
<feOffset dx="4" dy="4"/>
<feGaussianBlur stdDeviation="2"/>
<feComposite in2="hardAlpha" operator="arithmetic" k2="-1" k3="1"/>
<feColorMatrix type="matrix" values="0 0 0 0 0 0 0 0 0 0 0 0 0 0 0 0 0 0 0.5 0"/>
<feBlend mode="normal" in2="shape" result="effect1_innerShadow_4_64"/>
</filter>
<filter id="filter9_i_4_64" x="352.253" y="533.054" width="32.7554" height="494.709" filterUnits="userSpaceOnUse" color-interpolation-filters="sRGB">
<feFlood flood-opacity="0" result="BackgroundImageFix"/>
<feBlend mode="normal" in="SourceGraphic" in2="BackgroundImageFix" result="shape"/>
<feColorMatrix in="SourceAlpha" type="matrix" values="0 0 0 0 0 0 0 0 0 0 0 0 0 0 0 0 0 0 127 0" result="hardAlpha"/>
<feOffset dx="4" dy="4"/>
<feGaussianBlur stdDeviation="2"/>
<feComposite in2="hardAlpha" operator="arithmetic" k2="-1" k3="1"/>
<feColorMatrix type="matrix" values="0 0 0 0 0 0 0 0 0 0 0 0 0 0 0 0 0 0 0.5 0"/>
<feBlend mode="normal" in2="shape" result="effect1_innerShadow_4_64"/>
</filter>
<filter id="filter10_ii_4_64" x="431.726" y="543.509" width="32.7554" height="482.254" filterUnits="userSpaceOnUse" color-interpolation-filters="sRGB">
<feFlood flood-opacity="0" result="BackgroundImageFix"/>
<feBlend mode="normal" in="SourceGraphic" in2="BackgroundImageFix" result="shape"/>
<feColorMatrix in="SourceAlpha" type="matrix" values="0 0 0 0 0 0 0 0 0 0 0 0 0 0 0 0 0 0 127 0" result="hardAlpha"/>
<feOffset dx="2" dy="2"/>
<feGaussianBlur stdDeviation="2"/>
<feComposite in2="hardAlpha" operator="arithmetic" k2="-1" k3="1"/>
<feColorMatrix type="matrix" values="0 0 0 0 0 0 0 0 0 0 0 0 0 0 0 0 0 0 0.5 0"/>
<feBlend mode="normal" in2="shape" result="effect1_innerShadow_4_64"/>
<feColorMatrix in="SourceAlpha" type="matrix" values="0 0 0 0 0 0 0 0 0 0 0 0 0 0 0 0 0 0 127 0" result="hardAlpha"/>
<feOffset dx="-2" dy="-2"/>
<feGaussianBlur stdDeviation="2"/>
<feComposite in2="hardAlpha" operator="arithmetic" k2="-1" k3="1"/>
<feColorMatrix type="matrix" values="0 0 0 0 0 0 0 0 0 0 0 0 0 0 0 0 0 0 0.5 0"/>
<feBlend mode="normal" in2="effect1_innerShadow_4_64" result="effect2_innerShadow_4_64"/>
</filter>
<linearGradient id="paint0_linear_4_64" x1="718.883" y1="731.081" x2="177.324" y2="733.386" gradientUnits="userSpaceOnUse">
<stop/>
<stop offset="0.492188" stop-color="white"/>
<stop offset="1"/>
</linearGradient>
<linearGradient id="paint1_linear_4_64" x1="718.883" y1="731.081" x2="177.324" y2="733.386" gradientUnits="userSpaceOnUse">
<stop/>
<stop offset="0.492188" stop-color="white"/>
<stop offset="1"/>
</linearGradient>
<linearGradient id="paint2_linear_4_64" x1="177.324" y1="1038.71" x2="721.279" y2="1038.71" gradientUnits="userSpaceOnUse">
<stop/>
<stop offset="0.513412" stop-color="white"/>
<stop offset="1" stop-opacity="0"/>
</linearGradient>
<linearGradient id="paint3_linear_4_64" x1="177.324" y1="1038.71" x2="721.279" y2="1038.71" gradientUnits="userSpaceOnUse">
<stop/>
<stop offset="0.513412" stop-color="white"/>
<stop offset="1" stop-opacity="0"/>
</linearGradient>
<linearGradient id="paint4_linear_4_64" x1="174.928" y1="505.654" x2="728.468" y2="505.654" gradientUnits="userSpaceOnUse">
<stop stop-color="#636363"/>
<stop offset="0.505411" stop-color="white"/>
<stop offset="1" stop-opacity="0"/>
</linearGradient>
<linearGradient id="paint5_linear_4_64" x1="174.928" y1="505.654" x2="728.468" y2="505.654" gradientUnits="userSpaceOnUse">
<stop stop-color="#636363"/>
<stop offset="0.505411" stop-color="white"/>
<stop offset="1" stop-opacity="0"/>
</linearGradient>
<linearGradient id="paint6_linear_4_64" x1="559.531" y1="212.972" x2="1000.77" y2="567.299" gradientUnits="userSpaceOnUse">
<stop/>
<stop offset="0.514784" stop-color="white"/>
<stop offset="1"/>
</linearGradient>
<radialGradient id="paint7_radial_4_64" cx="0" cy="0" r="1" gradientUnits="userSpaceOnUse" gradientTransform="translate(809.192 353.69) rotate(129.224) scale(81.5203 292.147)">
<stop offset="0.869792" stop-color="#979797"/>
<stop offset="1" stop-color="#2C2C2C"/>
</radialGradient>
</defs>
</svg>
