<svg width="1080" height="1080" viewBox="0 0 1080 1080" fill="none" xmlns="http://www.w3.org/2000/svg">
<g filter="url(#filter0_i_6_123)">
<path d="M344.788 190.483C344.788 293.333 268.33 375.967 174.894 375.967C81.4574 375.967 5 293.333 5 190.483C5 87.6332 81.4574 5 174.894 5C268.33 5 344.788 87.6332 344.788 190.483Z" stroke="#636363" stroke-width="10"/>
</g>
<path d="M773.362 557.96L788.704 651.768L732.255 667.866L731.614 668.049L731.916 668.704L837.197 896.795L673.096 1023.72L567.815 795.631L567.512 794.976L567.084 795.62L529.382 852.348L472.01 791.045L521.952 697.125L567.444 658.388L591.319 668.916L591.533 669.01L591.737 668.837L641.213 626.82L641.432 626.633L641.432 626.323L641.432 596.558L686.617 569.752L773.362 557.96Z" fill="#5B7B65" stroke="black"/>
<path d="M1065.05 554.78L1018.69 629.593L973.337 583.284L972.788 582.724L972.589 583.44L902.949 833.402L723.162 749.467L792.802 499.505L793.002 498.79L792.303 498.767L734.553 496.945L734.848 400.623L822.625 391.145L874.564 412.156L883.393 442.726L883.476 443.012L883.731 443.116L940.189 466.052L940.459 466.162L940.647 465.962L958.432 447.113L1003.05 475.365L1065.05 554.78Z" fill="#A89C84" stroke="black"/>
<path d="M953.556 679.818L940.68 774.281L883.743 761.897L883.026 761.741L883.116 762.492L914.865 1025.03L726.071 1063.28L694.323 800.75L694.232 799.999L693.586 800.431L642.292 834.749L606.781 750.09L680.234 687.163L733.557 673.276L752.646 694.584L752.829 694.789L753.107 694.717L811.132 679.701L811.423 679.626L811.515 679.331L820.11 651.742L869.696 648.759L953.556 679.818Z" fill="#F2F0E9" stroke="black"/>
<g filter="url(#filter1_i_6_123)">
<path d="M52.5724 165.325C52.5724 165.325 339.929 165.325 354.442 165.325C368.955 165.326 354.442 510.351 354.442 510.351H52.5724C39.1981 375.61 36.8448 300.066 52.5724 165.325Z" fill="#A6A6A6"/>
</g>
<path d="M353.984 509.341L353.962 509.852H53.0252C39.7076 375.565 37.3693 300.095 53.0175 165.825L53.3972 165.825L55.8031 165.825L64.9481 165.825L97.6987 165.825L198.065 165.825C271.718 165.825 347.186 165.825 354.442 165.825C354.622 165.825 354.917 165.961 355.292 166.576C355.654 167.169 356.01 168.085 356.351 169.332C357.031 171.819 357.616 175.493 358.111 180.203C359.101 189.616 359.725 203.077 360.065 219.246C360.745 251.582 360.291 294.701 359.384 337.828C358.477 380.953 357.117 424.079 355.983 456.424C355.416 472.596 354.906 486.073 354.538 495.507C354.353 500.224 354.205 503.93 354.102 506.456C354.05 507.72 354.011 508.688 353.984 509.341Z" stroke="black"/>
<g filter="url(#filter2_i_6_123)">
<path d="M358.47 210.785C358.47 210.785 383.87 266.757 410.566 285.579C456.475 317.947 584.22 150.949 584.22 150.949L621.845 169.648L349.788 427.689L358.47 210.785Z" fill="#A2A2A2"/>
</g>
<path d="M584.366 151.58L620.982 169.777L350.337 426.479L358.888 212.863C358.973 213.044 359.065 213.237 359.163 213.442C359.911 215.012 361.009 217.275 362.41 220.05C365.212 225.599 369.226 233.194 374.077 241.379C383.764 257.725 396.834 276.509 410.278 285.988C416.158 290.133 423.324 291.064 431.301 289.579C439.27 288.095 448.084 284.194 457.326 278.627C475.81 267.491 496.117 249.616 514.963 230.755C533.814 211.89 551.227 192.015 563.926 176.858C570.276 169.279 575.448 162.879 579.033 158.373C580.825 156.12 582.221 154.34 583.169 153.124C583.642 152.516 584.004 152.048 584.248 151.733C584.291 151.677 584.33 151.626 584.366 151.58Z" stroke="black"/>
<path d="M668.788 302.732C668.788 310.527 666.898 315.647 664.273 318.813C661.651 321.976 658.277 323.212 655.254 323.212C652.292 323.212 649.561 321.22 647.558 317.224C645.554 313.228 644.304 307.27 644.304 299.459C644.304 291.66 646.235 282.413 648.599 275.114C649.781 271.464 651.068 268.311 652.27 266.075C652.872 264.956 653.447 264.076 653.971 263.48C654.233 263.182 654.476 262.962 654.697 262.818C654.9 262.685 655.072 262.624 655.216 262.615C655.376 262.675 655.575 262.802 655.81 263.011C656.06 263.235 656.338 263.54 656.639 263.923C657.24 264.69 657.919 265.75 658.643 267.05C660.089 269.648 661.7 273.18 663.204 277.17C666.215 285.156 668.788 294.943 668.788 302.732Z" fill="#D4FAFF" stroke="black" stroke-width="0.5"/>
<path d="M699.325 381.865C699.325 388.281 697.856 392.488 695.822 395.085C693.791 397.678 691.184 398.687 688.854 398.687C686.587 398.687 684.477 397.072 682.92 393.784C681.365 390.501 680.393 385.6 680.393 379.17C680.393 372.751 681.894 365.139 683.732 359.13C684.651 356.126 685.652 353.531 686.585 351.693C687.052 350.772 687.498 350.051 687.903 349.564C688.105 349.32 688.29 349.142 688.457 349.027C688.603 348.926 688.721 348.882 688.814 348.872C688.927 348.92 689.071 349.017 689.244 349.182C689.436 349.363 689.65 349.612 689.883 349.926C690.349 350.555 690.876 351.426 691.439 352.496C692.563 354.634 693.815 357.54 694.984 360.825C697.326 367.4 699.325 375.456 699.325 381.865Z" fill="#D4FAFF" stroke="black" stroke-width="0.5"/>
<path d="M657.684 417.805C657.684 424.221 656.214 428.428 654.181 431.025C652.15 433.619 649.543 434.627 647.213 434.627C644.946 434.627 642.835 433.012 641.279 429.725C639.724 426.441 638.751 421.54 638.751 415.11C638.751 408.691 640.253 401.08 642.091 395.07C643.01 392.066 644.01 389.471 644.944 387.633C645.411 386.712 645.857 385.991 646.261 385.504C646.463 385.26 646.649 385.083 646.815 384.968C646.961 384.867 647.08 384.822 647.173 384.813C647.285 384.86 647.429 384.958 647.603 385.122C647.795 385.303 648.009 385.552 648.242 385.867C648.708 386.495 649.235 387.367 649.797 388.436C650.921 390.574 652.173 393.48 653.343 396.766C655.684 403.34 657.684 411.396 657.684 417.805Z" fill="#D4FAFF" stroke="black" stroke-width="0.5"/>
<defs>
<filter id="filter0_i_6_123" x="0" y="0" width="349.788" height="384.967" filterUnits="userSpaceOnUse" color-interpolation-filters="sRGB">
<feFlood flood-opacity="0" result="BackgroundImageFix"/>
<feBlend mode="normal" in="SourceGraphic" in2="BackgroundImageFix" result="shape"/>
<feColorMatrix in="SourceAlpha" type="matrix" values="0 0 0 0 0 0 0 0 0 0 0 0 0 0 0 0 0 0 127 0" result="hardAlpha"/>
<feOffset dy="4"/>
<feGaussianBlur stdDeviation="2"/>
<feComposite in2="hardAlpha" operator="arithmetic" k2="-1" k3="1"/>
<feColorMatrix type="matrix" values="0 0 0 0 0 0 0 0 0 0 0 0 0 0 0 0 0 0 0.25 0"/>
<feBlend mode="normal" in2="shape" result="effect1_innerShadow_6_123"/>
</filter>
<filter id="filter1_i_6_123" x="41.6414" y="145.325" width="319.251" height="365.026" filterUnits="userSpaceOnUse" color-interpolation-filters="sRGB">
<feFlood flood-opacity="0" result="BackgroundImageFix"/>
<feBlend mode="normal" in="SourceGraphic" in2="BackgroundImageFix" result="shape"/>
<feColorMatrix in="SourceAlpha" type="matrix" values="0 0 0 0 0 0 0 0 0 0 0 0 0 0 0 0 0 0 127 0" result="hardAlpha"/>
<feOffset dy="-20"/>
<feGaussianBlur stdDeviation="15"/>
<feComposite in2="hardAlpha" operator="arithmetic" k2="-1" k3="1"/>
<feColorMatrix type="matrix" values="0 0 0 0 0 0 0 0 0 0 0 0 0 0 0 0 0 0 0.25 0"/>
<feBlend mode="normal" in2="shape" result="effect1_innerShadow_6_123"/>
</filter>
<filter id="filter2_i_6_123" x="349.788" y="150.949" width="272.057" height="280.74" filterUnits="userSpaceOnUse" color-interpolation-filters="sRGB">
<feFlood flood-opacity="0" result="BackgroundImageFix"/>
<feBlend mode="normal" in="SourceGraphic" in2="BackgroundImageFix" result="shape"/>
<feColorMatrix in="SourceAlpha" type="matrix" values="0 0 0 0 0 0 0 0 0 0 0 0 0 0 0 0 0 0 127 0" result="hardAlpha"/>
<feOffset dy="4"/>
<feGaussianBlur stdDeviation="2"/>
<feComposite in2="hardAlpha" operator="arithmetic" k2="-1" k3="1"/>
<feColorMatrix type="matrix" values="0 0 0 0 0 0 0 0 0 0 0 0 0 0 0 0 0 0 0.25 0"/>
<feBlend mode="normal" in2="shape" result="effect1_innerShadow_6_123"/>
</filter>
</defs>
</svg>
